Coordinates
version=1
nRows=23
nColumns=38
inDegrees=no

Units are S.I. units (second, meters, Newtons, ...)
If the header above contains a line with 'inDegrees', this indicates whether rotational values are in degrees (yes) or radians (no).

endheader
time	pelvis_tilt	pelvis_list	pelvis_rotation	pelvis_tx	pelvis_ty	pelvis_tz	hip_flexion_r	hip_adduction_r	hip_rotation_r	knee_angle_r	ankle_angle_r	subtalar_angle_r	mtp_angle_r	hip_flexion_l	hip_adduction_l	hip_rotation_l	knee_angle_l	ankle_angle_l	subtalar_angle_l	mtp_angle_l	lumbar_extension	lumbar_bending	lumbar_rotation	arm_flex_r	arm_add_r	arm_rot_r	elbow_flex_r	pro_sup_r	wrist_flex_r	wrist_dev_r	arm_flex_l	arm_add_l	arm_rot_l	elbow_flex_l	pro_sup_l	wrist_flex_l	wrist_dev_l
0	0.0436167	0.0741187	-0.0553543	-0.571435	1.00103	-0.263998	0.30171	-0.275556	-0.155463	1.23865	-0.118709	0	0	0.142826	0.153076	0.0116468	0.301051	0.125909	0	0	-0.159844	-0.0769622	-0.0139408	0.0233934	-0.172429	-0.168699	0.750442	0.60136	0	0	-0.0161388	-0.243915	0.0128246	0.824887	0.557166	0	0
0.01	0.0417053	0.0722014	-0.0516786	-0.5596	1.00267	-0.264793	0.327419	-0.271592	-0.155118	1.22702	-0.103295	0	0	0.120848	0.153019	0.0174335	0.281971	0.128357	0	0	-0.158146	-0.0729621	-0.0194276	0.0152973	-0.179093	-0.155798	0.753695	0.601295	0	0	-0.0036207	-0.250232	0.0398439	0.839871	0.55139	0	0
0.02	0.0418332	0.0657328	-0.0468622	-0.54795	1.0045	-0.265579	0.347132	-0.263008	-0.159609	1.20771	-0.0890665	0	0	0.0972684	0.148199	0.026516	0.264673	0.13108	0	0	-0.159817	-0.0637597	-0.0251318	0.0097789	-0.181468	-0.165157	0.755489	0.59935	0	0	0.0107104	-0.249919	0.0471035	0.851091	0.569278	0	0
0.03	0.0400908	0.0581826	-0.0405914	-0.536392	1.00598	-0.266386	0.367069	-0.25236	-0.165184	1.18348	-0.0757298	0	0	0.0769194	0.142051	0.0377389	0.249656	0.134132	0	0	-0.159818	-0.0532601	-0.0318724	0.00488523	-0.180992	-0.186535	0.756615	0.6005	0	0	0.0255375	-0.24505	0.0381225	0.859945	0.573759	0	0
0.04	0.0423784	0.0529254	-0.0352186	-0.524593	1.00738	-0.266912	0.380908	-0.243065	-0.168967	1.15471	-0.0566532	0	0	0.0512767	0.13792	0.0469295	0.23285	0.13706	0	0	-0.163652	-0.0461245	-0.037836	-0.0026593	-0.185906	-0.185036	0.762499	0.585585	0	0	0.0375598	-0.25203	0.0620019	0.881744	0.548638	0	0
0.05	0.0396482	0.0455897	-0.0292309	-0.51313	1.00822	-0.267567	0.399305	-0.231544	-0.174252	1.12205	-0.042807	0	0	0.0333652	0.131416	0.0584552	0.21974	0.141039	0	0	-0.162659	-0.0360781	-0.043819	-0.00678188	-0.185051	-0.208763	0.763402	0.586899	0	0	0.0516206	-0.247131	0.0521168	0.89275	0.553757	0	0
0.06	0.0420887	0.0400444	-0.0224534	-0.501755	1.00916	-0.268056	0.409528	-0.222891	-0.18197	1.08442	-0.0264313	0	0	0.0102004	0.126169	0.0679575	0.206825	0.14583	0	0	-0.16768	-0.0287416	-0.0511776	-0.0110383	-0.188804	-0.208572	0.765192	0.582442	0	0	0.0635076	-0.253801	0.0730952	0.915274	0.551169	0	0
0.07	0.0429902	0.0336106	-0.0156171	-0.490362	1.00979	-0.26852	0.419093	-0.213354	-0.191702	1.04143	-0.0159476	0	0	-0.0109331	0.119664	0.0788013	0.194531	0.151553	0	0	-0.170939	-0.0202581	-0.0582309	-0.0142498	-0.190014	-0.219907	0.765507	0.575441	0	0	0.0759209	-0.255007	0.0776481	0.933628	0.540183	0	0
0.08	0.0393587	0.0289526	-0.0114448	-0.479066	1.00975	-0.268805	0.433906	-0.203939	-0.197648	0.995983	-0.00997518	0	0	-0.0270892	0.114932	0.0886342	0.181864	0.156891	0	0	-0.169087	-0.0138487	-0.062359	-0.0172458	-0.189049	-0.240517	0.764598	0.57648	0	0	0.0884776	-0.251855	0.0717183	0.947414	0.544686	0	0
0.09	0.0458168	0.0238159	-0.00408431	-0.467244	1.01032	-0.269029	0.431727	-0.195153	-0.20964	0.94326	-0.000417148	0	0	-0.0565374	0.108761	0.0990401	0.165994	0.161961	0	0	-0.17796	-0.00737193	-0.0706252	-0.0204951	-0.191553	-0.243009	0.765929	0.557754	0	0	0.0984976	-0.258408	0.0884545	0.972241	0.549679	0	0
0.1	0.0473622	0.0202553	0.00289427	-0.455584	1.01011	-0.269208	0.434673	-0.188381	-0.222451	0.888505	0.00699201	0	0	-0.0791878	0.104137	0.110777	0.152465	0.166498	0	0	-0.181462	-0.0026081	-0.0781734	-0.0230515	-0.191717	-0.252896	0.76525	0.552739	0	0	0.10909	-0.261	0.0939399	0.992716	0.548403	0	0
0.11	0.0499762	0.0144536	0.00896465	-0.443629	1.00981	-0.269163	0.432987	-0.178262	-0.237323	0.827771	0.0124785	0	0	-0.105376	0.0966564	0.126112	0.135129	0.170614	0	0	-0.185819	0.00451403	-0.0839449	-0.0246818	-0.188785	-0.278141	0.764264	0.53785	0	0	0.118802	-0.261089	0.0941613	1.01318	0.548185	0	0
0.12	0.0510707	0.0148289	0.0152435	-0.431677	1.00889	-0.269248	0.433347	-0.175111	-0.250929	0.767369	0.0211132	0	0	-0.125889	0.0955704	0.130965	0.125041	0.178443	0	0	-0.188073	0.00469823	-0.0924213	-0.0280218	-0.190942	-0.274136	0.763207	0.538132	0	0	0.127661	-0.266108	0.104388	1.03337	0.544512	0	0
0.13	0.0517014	0.0132487	0.0209225	-0.419589	1.00778	-0.269165	0.431474	-0.168576	-0.266437	0.701429	0.0276344	0	0	-0.147622	0.0920457	0.139256	0.111993	0.185258	0	0	-0.189912	0.00692542	-0.0987893	-0.0306152	-0.190341	-0.28416	0.761234	0.528305	0	0	0.136744	-0.268566	0.108974	1.05375	0.52223	0	0
0.14	0.0502981	0.0103488	0.02502	-0.407469	1.00627	-0.268829	0.430236	-0.158738	-0.281156	0.631527	0.02977	0	0	-0.168357	0.0870014	0.151615	0.0966646	0.189874	0	0	-0.189576	0.0103539	-0.102794	-0.0320616	-0.187149	-0.307397	0.759634	0.496778	0	0	0.145216	-0.269183	0.1115	1.07433	0.526612	0	0
0.15	0.0488454	0.0103797	0.0293934	-0.39528	1.00439	-0.268529	0.42861	-0.151819	-0.296349	0.56131	0.0320247	0	0	-0.185565	0.0850108	0.156194	0.0880212	0.19812	0	0	-0.188728	0.0104128	-0.108864	-0.0355477	-0.187752	-0.307093	0.758967	0.497623	0	0	0.153739	-0.271481	0.115971	1.09367	0.52249	0	0
0.16	0.0460847	0.00810327	0.034508	-0.382617	1.00229	-0.268095	0.42587	-0.141273	-0.313311	0.488358	0.0357221	0	0	-0.202784	0.0799879	0.164984	0.0775371	0.205607	0	0	-0.185324	0.0130327	-0.11406	-0.039223	-0.185004	-0.321886	0.756717	0.496535	0	0	0.160754	-0.272302	0.120987	1.10944	0.531111	0	0
0.17	0.0465932	0.0037804	0.0370391	-0.369895	1.0003	-0.267298	0.418637	-0.125253	-0.326303	0.413421	0.0403815	0	0	-0.223144	0.0727041	0.168223	0.0678738	0.215206	0	0	-0.18568	0.0175252	-0.117679	-0.041163	-0.18498	-0.328487	0.755146	0.451029	0	0	0.166646	-0.273443	0.122159	1.1276	0.482697	0	0
0.18	0.0439575	0.00171619	0.0379846	-0.357409	0.997811	-0.266325	0.416298	-0.109497	-0.331353	0.341213	0.0472706	0	0	-0.238689	0.0683453	0.170332	0.0604917	0.225308	0	0	-0.182951	0.0190865	-0.119376	-0.0435454	-0.183681	-0.338448	0.753607	0.417584	0	0	0.173265	-0.274485	0.127255	1.14227	0.478352	0	0
0.19	0.0440146	-0.00344619	0.0375413	-0.344549	0.995447	-0.26504	0.408435	-0.0874361	-0.326757	0.266904	0.0551785	0	0	-0.257835	0.0605539	0.169963	0.0523515	0.235197	0	0	-0.182214	0.0237364	-0.118142	-0.0468775	-0.182191	-0.353665	0.753633	0.361704	0	0	0.180464	-0.274116	0.130228	1.15665	0.443638	0	0
0.2	0.0399266	-0.00460025	0.0379614	-0.331913	0.992615	-0.264009	0.406957	-0.0715096	-0.317215	0.200666	0.0667946	0	0	-0.268306	0.0578194	0.166392	0.0517449	0.246637	0	0	-0.177387	0.0242393	-0.11972	-0.0508893	-0.18178	-0.354663	0.75279	0.362651	0	0	0.186147	-0.273461	0.131978	1.16729	0.440519	0	0
0.21	0.0372365	-0.00794966	0.038381	-0.318984	0.989906	-0.262843	0.400568	-0.0522505	-0.296396	0.133241	0.0751899	0	0	-0.28042	0.0526488	0.163764	0.0515176	0.258367	0	0	-0.173807	0.0273133	-0.120687	-0.0542713	-0.1806	-0.365239	0.753534	0.307575	0	0	0.1912	-0.272374	0.133382	1.17758	0.422985	0	0
0.22	0.0381502	-0.0137278	0.0396239	-0.305466	0.987512	-0.261635	0.383414	-0.0298091	-0.260438	0.0597176	0.0761529	0	0	-0.299466	0.0443245	0.167794	0.0470081	0.267479	0	0	-0.173466	0.0334832	-0.120939	-0.0579665	-0.17849	-0.378642	0.752743	0.280667	0	0	0.19569	-0.271119	0.137351	1.18763	0.410998	0	0
